<svg width="16" height="16" viewBox="0 0 16 16" fill="none" xmlns="http://www.w3.org/2000/svg">
<circle cx="8" cy="8" r="8" fill="white"/>
<circle cx="8" cy="8" r="7.5" fill="#2473EB"/>
<path d="M7.88017 13H4.14189V2.45455H7.91107C8.97179 2.45455 9.88491 2.66566 10.6504 3.08789C11.4159 3.50669 12.0046 4.10914 12.4166 4.89524C12.8319 5.68134 13.0396 6.62192 13.0396 7.71697C13.0396 8.81546 12.8319 9.75947 12.4166 10.549C12.0046 11.3385 11.4125 11.9444 10.6401 12.3667C9.87118 12.7889 8.95119 13 7.88017 13ZM6.37147 11.0897H7.78749C8.44658 11.0897 9.00097 10.973 9.45066 10.7395C9.90379 10.5027 10.2436 10.1371 10.4702 9.64276C10.7002 9.145 10.8152 8.50308 10.8152 7.71697C10.8152 6.93774 10.7002 6.30096 10.4702 5.80664C10.2436 5.31232 9.9055 4.94845 9.45581 4.71502C9.00612 4.48159 8.45173 4.36488 7.79264 4.36488H6.37147V11.0897Z" fill="white"/>
</svg>
