<svg width="120" height="40" viewBox="0 0 120 40" fill="none" xmlns="http://www.w3.org/2000/svg">
<path d="M10.2727 31.5H2.02273V8.22727H10.3409C12.6818 8.22727 14.697 8.69318 16.3864 9.625C18.0758 10.5492 19.375 11.8788 20.2841 13.6136C21.2008 15.3485 21.6591 17.4242 21.6591 19.8409C21.6591 22.2652 21.2008 24.3485 20.2841 26.0909C19.375 27.8333 18.0682 29.1705 16.3636 30.1023C14.6667 31.0341 12.6364 31.5 10.2727 31.5ZM6.94318 27.2841H10.0682C11.5227 27.2841 12.7462 27.0265 13.7386 26.5114C14.7386 25.9886 15.4886 25.1818 15.9886 24.0909C16.4962 22.9924 16.75 21.5758 16.75 19.8409C16.75 18.1212 16.4962 16.7159 15.9886 15.625C15.4886 14.5341 14.7424 13.7311 13.75 13.2159C12.7576 12.7008 11.5341 12.4432 10.0795 12.4432H6.94318V27.2841ZM33.0994 31.8409C31.3343 31.8409 29.8078 31.4659 28.5199 30.7159C27.2396 29.9583 26.2509 28.9053 25.554 27.5568C24.857 26.2008 24.5085 24.6288 24.5085 22.8409C24.5085 21.0379 24.857 19.4621 25.554 18.1136C26.2509 16.7576 27.2396 15.7045 28.5199 14.9545C29.8078 14.197 31.3343 13.8182 33.0994 13.8182C34.8646 13.8182 36.3873 14.197 37.6676 14.9545C38.9555 15.7045 39.9479 16.7576 40.6449 18.1136C41.3419 19.4621 41.6903 21.0379 41.6903 22.8409C41.6903 24.6288 41.3419 26.2008 40.6449 27.5568C39.9479 28.9053 38.9555 29.9583 37.6676 30.7159C36.3873 31.4659 34.8646 31.8409 33.0994 31.8409ZM33.1222 28.0909C33.9252 28.0909 34.5956 27.8636 35.1335 27.4091C35.6714 26.947 36.0767 26.3182 36.3494 25.5227C36.6297 24.7273 36.7699 23.822 36.7699 22.8068C36.7699 21.7917 36.6297 20.8864 36.3494 20.0909C36.0767 19.2955 35.6714 18.6667 35.1335 18.2045C34.5956 17.7424 33.9252 17.5114 33.1222 17.5114C32.3116 17.5114 31.6297 17.7424 31.0767 18.2045C30.5313 18.6667 30.1184 19.2955 29.8381 20.0909C29.5653 20.8864 29.429 21.7917 29.429 22.8068C29.429 23.822 29.5653 24.7273 29.8381 25.5227C30.1184 26.3182 30.5313 26.947 31.0767 27.4091C31.6297 27.8636 32.3116 28.0909 33.1222 28.0909ZM52.7244 31.8409C50.9366 31.8409 49.3987 31.4621 48.1108 30.7045C46.8305 29.9394 45.8456 28.8788 45.1562 27.5227C44.4744 26.1667 44.1335 24.6061 44.1335 22.8409C44.1335 21.053 44.4782 19.4848 45.1676 18.1364C45.8646 16.7803 46.8532 15.7235 48.1335 14.9659C49.4138 14.2008 50.9366 13.8182 52.7017 13.8182C54.2244 13.8182 55.5578 14.0947 56.7017 14.6477C57.8456 15.2008 58.7509 15.9773 59.4176 16.9773C60.0843 17.9773 60.4517 19.1515 60.5199 20.5H55.9517C55.8229 19.6288 55.482 18.928 54.929 18.3977C54.3835 17.8598 53.6676 17.5909 52.7812 17.5909C52.0312 17.5909 51.3759 17.7955 50.8153 18.2045C50.2623 18.6061 49.8305 19.1932 49.5199 19.9659C49.2093 20.7386 49.054 21.6742 49.054 22.7727C49.054 23.8864 49.2055 24.8333 49.5085 25.6136C49.8191 26.3939 50.2547 26.9886 50.8153 27.3977C51.3759 27.8068 52.0312 28.0114 52.7812 28.0114C53.3343 28.0114 53.8305 27.8977 54.2699 27.6705C54.7169 27.4432 55.0843 27.1136 55.3722 26.6818C55.6676 26.2424 55.8608 25.7159 55.9517 25.1023H60.5199C60.4441 26.4356 60.0805 27.6098 59.429 28.625C58.785 29.6326 57.8949 30.4205 56.7585 30.9886C55.6222 31.5568 54.2775 31.8409 52.7244 31.8409Z" fill="black"/>
<path d="M76.3352 14.9205C76.2443 14.0038 75.8542 13.2917 75.1648 12.7841C74.4754 12.2765 73.5398 12.0227 72.358 12.0227C71.5549 12.0227 70.8769 12.1364 70.3239 12.3636C69.7708 12.5833 69.3466 12.8902 69.0511 13.2841C68.7633 13.678 68.6193 14.125 68.6193 14.625C68.6042 15.0417 68.6913 15.4053 68.8807 15.7159C69.0777 16.0265 69.3466 16.2955 69.6875 16.5227C70.0284 16.7424 70.4223 16.9356 70.8693 17.1023C71.3163 17.2614 71.7936 17.3977 72.3011 17.5114L74.392 18.0114C75.4072 18.2386 76.339 18.5417 77.1875 18.9205C78.036 19.2992 78.7708 19.7652 79.392 20.3182C80.0133 20.8712 80.4943 21.5227 80.8352 22.2727C81.1837 23.0227 81.3617 23.8826 81.3693 24.8523C81.3617 26.2765 80.9981 27.5114 80.2784 28.5568C79.5663 29.5947 78.536 30.4015 77.1875 30.9773C75.8466 31.5455 74.2292 31.8295 72.3352 31.8295C70.4564 31.8295 68.8201 31.5417 67.4261 30.9659C66.0398 30.3902 64.9564 29.5379 64.1761 28.4091C63.4034 27.2727 62.9981 25.8674 62.9602 24.1932H67.7216C67.7746 24.9735 67.9981 25.625 68.392 26.1477C68.7936 26.6629 69.3277 27.053 69.9943 27.3182C70.6686 27.5758 71.4299 27.7045 72.2784 27.7045C73.1117 27.7045 73.8352 27.5833 74.4489 27.3409C75.0701 27.0985 75.5511 26.7614 75.892 26.3295C76.233 25.8977 76.4034 25.4015 76.4034 24.8409C76.4034 24.3182 76.2481 23.8788 75.9375 23.5227C75.6345 23.1667 75.1875 22.8636 74.5966 22.6136C74.0133 22.3636 73.2973 22.1364 72.4489 21.9318L69.9148 21.2955C67.9527 20.8182 66.4034 20.072 65.267 19.0568C64.1307 18.0417 63.5663 16.6742 63.5739 14.9545C63.5663 13.5455 63.9413 12.3144 64.6989 11.2614C65.464 10.2083 66.5133 9.38636 67.8466 8.79545C69.1799 8.20454 70.6951 7.90909 72.392 7.90909C74.1193 7.90909 75.6269 8.20454 76.9148 8.79545C78.2102 9.38636 79.2178 10.2083 79.9375 11.2614C80.6572 12.3144 81.0284 13.5341 81.0511 14.9205H76.3352ZM87.5767 38.0455C86.9631 38.0455 86.3873 37.9962 85.8494 37.8977C85.3191 37.8068 84.8797 37.6894 84.5312 37.5455L85.6222 33.9318C86.1903 34.1061 86.7017 34.2008 87.1562 34.2159C87.6184 34.2311 88.0161 34.125 88.3494 33.8977C88.6903 33.6705 88.9669 33.2841 89.179 32.7386L89.4631 32L83.2017 14.0455H88.2926L91.9062 26.8636H92.0881L95.7358 14.0455H100.861L94.0767 33.3864C93.7509 34.3258 93.3078 35.1439 92.7472 35.8409C92.1941 36.5455 91.4934 37.0871 90.6449 37.4659C89.7964 37.8523 88.7737 38.0455 87.5767 38.0455ZM117.861 19.0227L113.429 19.2955C113.353 18.9167 113.19 18.5758 112.94 18.2727C112.69 17.9621 112.361 17.7159 111.952 17.5341C111.55 17.3447 111.069 17.25 110.509 17.25C109.759 17.25 109.126 17.4091 108.611 17.7273C108.096 18.0379 107.838 18.4545 107.838 18.9773C107.838 19.3939 108.005 19.7462 108.338 20.0341C108.671 20.322 109.243 20.553 110.054 20.7273L113.213 21.3636C114.91 21.7121 116.175 22.2727 117.009 23.0455C117.842 23.8182 118.259 24.8333 118.259 26.0909C118.259 27.2348 117.921 28.2386 117.247 29.1023C116.58 29.9659 115.664 30.6402 114.497 31.125C113.338 31.6023 112.001 31.8409 110.486 31.8409C108.175 31.8409 106.334 31.3598 104.963 30.3977C103.599 29.428 102.8 28.1098 102.565 26.4432L107.327 26.1932C107.471 26.8977 107.819 27.4356 108.372 27.8068C108.925 28.1705 109.634 28.3523 110.497 28.3523C111.346 28.3523 112.027 28.1894 112.543 27.8636C113.065 27.5303 113.33 27.1023 113.338 26.5795C113.33 26.1402 113.145 25.7803 112.781 25.5C112.418 25.2121 111.857 24.9924 111.099 24.8409L108.077 24.2386C106.372 23.8977 105.103 23.3068 104.27 22.4659C103.444 21.625 103.031 20.553 103.031 19.25C103.031 18.1288 103.334 17.1629 103.94 16.3523C104.554 15.5417 105.414 14.9167 106.52 14.4773C107.634 14.0379 108.937 13.8182 110.429 13.8182C112.634 13.8182 114.368 14.2841 115.634 15.2159C116.906 16.1477 117.649 17.4167 117.861 19.0227Z" fill="#2473EB"/>
</svg>
